<?xml version="1.0" encoding="utf-8"?>
<!-- Generator: Adobe Illustrator 15.0.2, SVG Export Plug-In . SVG Version: 6.00 Build 0)  -->
<!DOCTYPE svg PUBLIC "-//W3C//DTD SVG 1.1//EN" "http://www.w3.org/Graphics/SVG/1.1/DTD/svg11.dtd">
<svg version="1.1" id="Ebene_1" xmlns="http://www.w3.org/2000/svg" xmlns:xlink="http://www.w3.org/1999/xlink" x="0px" y="0px"
	 width="456px" height="205px" viewBox="0 0 456 205" enable-background="new 0 0 456 205" xml:space="preserve">
<rect x="65.078" y="33.001" fill="#FFFFFF" width="331.432" height="148.999"/>
<polygon fill="#AE1A1C" points="175.108,129.301 175.108,108.697 175.108,88.094 175.108,67.492 154.506,67.492 133.902,67.492 
	113.3,67.492 113.3,88.094 133.902,88.094 154.506,88.094 154.506,108.697 154.506,129.301 "/>
<polygon fill="#EDC011" points="154.506,149.904 154.506,129.302 133.903,129.302 113.3,129.302 113.3,108.696 113.3,88.095 
	92.698,88.095 92.698,108.696 92.698,129.302 92.698,149.904 113.3,149.904 133.903,149.904 "/>
<g>
	<defs>
		<rect id="SVGID_1_" x="65.078" y="33.001" width="331.431" height="148.999"/>
	</defs>
	<clipPath id="SVGID_2_">
		<use xlink:href="#SVGID_1_"  overflow="visible"/>
	</clipPath>
	<path clip-path="url(#SVGID_2_)" fill="#6E6E6D" d="M217.887,77.241v9.418h3.381c4.047,0,5.438-1.924,5.438-5.041
		c0-3.315-1.79-4.377-5.503-4.377H217.887z M228.167,113.721l-4.841-12.933c-1.79-4.775-2.852-5.369-5.439-5.369v18.302h-11.873
		V67.491h15.919c13.597,0,17.974,5.506,17.974,13.199c0,7.96-4.179,12.006-9.619,12.936c1.594,0.463,3.518,2.583,4.646,4.973
		c1.523,3.115,5.438,11.672,6.963,15.121H228.167z M246.791,113.721V67.491h25.999l0.002,9.75h-14.128v7.762h11.543v9.415h-11.543
		v9.419h15.854v9.883H246.791z M322.408,113.721h-12.669l-2.387-13.396c-0.996-5.571-2.057-11.607-2.255-14.526h-0.065
		c-0.135,2.322-1.127,8.489-2.257,14.526l-2.455,13.396h-12.934L276.18,67.491h12.535l2.586,12.468
		c2.188,10.414,2.586,14.925,2.652,16.651h0.066c0.266-3.715,1.06-9.486,2.321-16.317l2.388-12.802h13.199l2.984,15.454
		c0.666,3.518,1.594,7.959,1.859,13.598h0.064c0.266-4.114,1.66-13.068,2.588-17.578l2.321-11.474h12.667L322.408,113.721z
		 M337.731,113.721V67.491h26.001v9.75h-14.126v7.762h11.54v9.415h-11.54v9.419h15.851v9.883H337.731z M224.894,141.689
		c0,4.521-3.737,8.726-10.851,8.726c-3.173,0-6.389-0.824-9.122-2.437l1.769-3.459c2.492,1.415,4.702,2.24,7.515,2.24
		c3.415,0,5.464-1.611,5.464-4.323c0-2.005-1.285-3.262-4.139-4.048l-2.973-0.826c-2.532-0.707-4.341-1.73-5.385-3.262
		c-0.764-1.1-1.166-2.398-1.166-3.97c0-4.796,3.858-8.058,9.445-8.058c3.174,0,6.349,0.904,8.799,2.593l-2.089,3.186
		c-2.571-1.495-4.341-2.084-6.551-2.084c-2.732,0-4.54,1.455-4.54,3.694c0,1.691,0.963,2.556,3.697,3.343l3.295,0.941
		C222.081,135.088,224.894,137.603,224.894,141.689 M239.523,138.938v10.965h-4.783v-11.004l-8.761-16.194h5.588l4.179,8.53
		c0.842,1.729,1.485,3.498,1.485,3.498s0.804-1.926,1.526-3.42l4.261-8.608h5.386L239.523,138.938z M268.874,141.689
		c0,4.521-3.737,8.726-10.85,8.726c-3.175,0-6.39-0.824-9.122-2.437l1.769-3.459c2.491,1.415,4.702,2.24,7.514,2.24
		c3.417,0,5.466-1.611,5.466-4.323c0-2.005-1.286-3.262-4.14-4.048l-2.974-0.826c-2.531-0.707-4.34-1.73-5.385-3.262
		c-0.764-1.1-1.165-2.398-1.165-3.97c0-4.796,3.858-8.058,9.444-8.058c3.174,0,6.349,0.904,8.8,2.593l-2.09,3.186
		c-2.571-1.495-4.34-2.084-6.55-2.084c-2.733,0-4.541,1.455-4.541,3.694c0,1.691,0.964,2.556,3.697,3.343l3.296,0.941
		C266.062,135.088,268.874,137.603,268.874,141.689 M290.414,126.479h-7.596v23.424h-4.62v-23.424h-7.033v-3.774h19.249V126.479z
		 M294.338,149.903v-27.197h15.431l0.011,3.694h-10.821v7.428h8.561v3.734h-8.479v8.49h11.131v3.851H294.338z M337.761,149.903
		l-1.286-16.861c-0.121-1.729-0.2-3.89-0.2-4.716c-0.201,0.904-0.563,2.634-1.086,4.363l-5.063,17.214h-3.937l-4.622-16.468
		c-0.522-1.808-1.045-4.244-1.206-5.149c0,0.905-0.16,3.5-0.281,5.189l-1.206,16.428h-4.541l2.532-27.197h6.148l4.26,15.407
		c0.643,2.279,0.884,3.812,1.045,4.638c0.12-0.825,0.482-2.673,1.004-4.56l4.381-15.485h6.148l2.452,27.197H337.761z
		 M365.601,141.692c0,4.519-3.736,8.724-10.85,8.724c-3.175,0-6.389-0.824-9.123-2.436l1.769-3.46
		c2.492,1.415,4.702,2.241,7.515,2.241c3.417,0,5.465-1.61,5.465-4.323c0-2.005-1.285-3.263-4.139-4.049l-2.973-0.824
		c-2.532-0.709-4.341-1.729-5.386-3.263c-0.763-1.1-1.165-2.396-1.165-3.969c0-4.796,3.858-8.058,9.443-8.058
		c3.175,0,6.35,0.903,8.801,2.592l-2.09,3.186c-2.571-1.494-4.341-2.084-6.551-2.084c-2.732,0-4.541,1.455-4.541,3.695
		c0,1.69,0.966,2.555,3.698,3.342l3.295,0.941C362.787,135.089,365.601,137.604,365.601,141.692"/>
</g>
</svg>
